<?xml version="1.0"?><svg width="640" height="480" xmlns="http://www.w3.org/2000/svg">
 <title>Green Soldier helmet</title>
 <defs>
  <filter id="filter6605">
   <feGaussianBlur id="feGaussianBlur6607" stdDeviation="1.13112"/>
  </filter>
  <filter id="filter6658">
   <feGaussianBlur id="feGaussianBlur6660" stdDeviation="0.892662"/>
  </filter>
 </defs>
 <metadata id="metadata6025">image/svg+xml</metadata>
 <g>
  <title>Layer 1</title>
  <g id="layer1">
   <g id="g6682">
    <path fill="#3f7f00" fill-rule="nonzero" stroke-width="6" stroke-linecap="round" stroke-linejoin="round" stroke-miterlimit="4" stroke-dashoffset="0" d="m505.899506,255.376678c-58.795776,7.501434 -157.350708,33.580139 -222.021698,50.819641c-70.184372,16.090393 -157.065872,9.58078 -187.035698,-22.179413c-0.355621,-0.376892 -0.873634,-3.67392 -1.117584,-4.017883c-1.298615,1.479004 -1.105827,6.139587 1.117584,8.495758c29.969826,31.760162 116.851326,38.269775 187.035698,22.179413c41.569611,-14.513153 157.580811,-42.679474 218.796234,-52.541229c2.603516,-1.40683 0.883636,-0.817596 3.225464,-2.756287z" id="path6609"/>
    <path fill="#3f7f00" fill-rule="nonzero" stroke-width="6" stroke-linecap="round" stroke-linejoin="round" stroke-miterlimit="4" stroke-dashoffset="0" d="m458.064728,200.478958c0,29.406052 16.763428,42.288345 47.475189,54.978622c-77.220123,12.449677 -154.693268,32.944275 -221.503235,50.754059c-70.184341,16.090363 -157.099411,9.602753 -187.069214,-22.157532c-9.038513,-9.578461 19.324745,-7.890686 17.605804,-27.599091c-12.119041,-139.515869 56.940262,-210.307747 162.616394,-211.465271c96.595642,-1.069588 180.875061,68.410751 180.875061,155.489212z" id="path6043"/>
    <path fill="#3f7f00" fill-rule="nonzero" stroke-width="6" stroke-linecap="round" stroke-linejoin="round" stroke-miterlimit="4" stroke-dashoffset="0" filter="url(#filter6605)" id="path6046" d="m460.978485,232.115173c-58.505829,33.829865 -86.002716,30.54538 -184.33609,61.317566c-69.835464,-0.016663 -102.773987,12.854858 -157.577316,-31.874695c-11.952225,-137.59491 56.156281,-207.412178 160.377426,-208.553787c95.265656,-1.054825 183.899414,76.056381 181.53598,179.110916z"/>
    <path fill="#3f7f00" fill-rule="nonzero" stroke-width="6" stroke-linecap="round" stroke-linejoin="round" stroke-miterlimit="4" stroke-dashoffset="0" filter="url(#filter6658)" id="path6620" d="m503.075256,254.816956c-58.795776,7.501434 -152.831909,33.020386 -217.502899,50.259888c-70.184357,16.090393 -157.065872,7.901581 -187.035698,-23.858582c-0.355621,-0.376892 -0.873642,-3.67395 -1.117584,-4.017883c-1.298615,1.479004 -1.105827,6.139557 1.117584,8.495728c29.969826,31.760162 116.851341,38.269775 187.035698,22.179413c41.569641,-14.513153 151.367462,-41.559998 212.582916,-51.421722c4.862885,-1.40686 2.578156,0.301849 4.919983,-1.636841z"/>
   </g>
  </g>
 </g>
</svg>